<mxfile host="app.diagrams.net" modified="2020-08-26T02:56:09.214Z" agent="5.0 (Macintosh; Intel Mac OS X 10_15_6) AppleWebKit/537.36 (KHTML, like Gecko) Chrome/84.0.4147.125 Safari/537.36" etag="PGahE9rHila5KAlb5rLo" version="13.6.5" type="github">
  <diagram id="C5RBs43oDa-KdzZeNtuy" name="Page-1">
    <mxGraphModel dx="751" dy="493" grid="1" gridSize="10" guides="1" tooltips="1" connect="1" arrows="1" fold="1" page="1" pageScale="1" pageWidth="827" pageHeight="1169" math="0" shadow="0">
      <root>
        <mxCell id="WIyWlLk6GJQsqaUBKTNV-0" />
        <mxCell id="WIyWlLk6GJQsqaUBKTNV-1" parent="WIyWlLk6GJQsqaUBKTNV-0" />
        <mxCell id="WIyWlLk6GJQsqaUBKTNV-2" value="" style="rounded=0;html=1;jettySize=auto;orthogonalLoop=1;fontSize=11;endArrow=block;endFill=0;endSize=8;strokeWidth=1;shadow=0;labelBackgroundColor=none;edgeStyle=orthogonalEdgeStyle;" parent="WIyWlLk6GJQsqaUBKTNV-1" source="WIyWlLk6GJQsqaUBKTNV-3" target="WIyWlLk6GJQsqaUBKTNV-6" edge="1">
          <mxGeometry relative="1" as="geometry" />
        </mxCell>
        <mxCell id="WIyWlLk6GJQsqaUBKTNV-3" value="ENTER SPACE" style="rounded=1;whiteSpace=wrap;html=1;fontSize=12;glass=0;strokeWidth=1;shadow=0;" parent="WIyWlLk6GJQsqaUBKTNV-1" vertex="1">
          <mxGeometry x="340" y="90" width="120" height="40" as="geometry" />
        </mxCell>
        <mxCell id="nufXrdWGqfoAn5ck-N7Z-3" style="edgeStyle=orthogonalEdgeStyle;rounded=0;orthogonalLoop=1;jettySize=auto;html=1;exitX=0.5;exitY=1;exitDx=0;exitDy=0;entryX=0.5;entryY=0;entryDx=0;entryDy=0;" edge="1" parent="WIyWlLk6GJQsqaUBKTNV-1" source="WIyWlLk6GJQsqaUBKTNV-6" target="nufXrdWGqfoAn5ck-N7Z-1">
          <mxGeometry relative="1" as="geometry" />
        </mxCell>
        <mxCell id="WIyWlLk6GJQsqaUBKTNV-6" value="INTRO&lt;br&gt;LINE" style="rhombus;whiteSpace=wrap;html=1;shadow=0;fontFamily=Helvetica;fontSize=12;align=center;strokeWidth=1;spacing=6;spacingTop=-4;fillColor=#f8cecc;strokeColor=#b85450;" parent="WIyWlLk6GJQsqaUBKTNV-1" vertex="1">
          <mxGeometry x="365" y="150" width="70" height="60" as="geometry" />
        </mxCell>
        <mxCell id="nufXrdWGqfoAn5ck-N7Z-5" value="TRUE" style="edgeStyle=orthogonalEdgeStyle;rounded=0;orthogonalLoop=1;jettySize=auto;html=1;exitX=0.625;exitY=1;exitDx=0;exitDy=0;entryX=0;entryY=0.5;entryDx=0;entryDy=0;" edge="1" parent="WIyWlLk6GJQsqaUBKTNV-1" source="nufXrdWGqfoAn5ck-N7Z-1" target="nufXrdWGqfoAn5ck-N7Z-9">
          <mxGeometry relative="1" as="geometry">
            <mxPoint x="480" y="330" as="targetPoint" />
            <Array as="points">
              <mxPoint x="408" y="310" />
            </Array>
          </mxGeometry>
        </mxCell>
        <mxCell id="nufXrdWGqfoAn5ck-N7Z-6" value="FALSE" style="edgeStyle=orthogonalEdgeStyle;rounded=0;orthogonalLoop=1;jettySize=auto;html=1;exitX=0.375;exitY=1;exitDx=0;exitDy=0;entryX=1;entryY=0.5;entryDx=0;entryDy=0;" edge="1" parent="WIyWlLk6GJQsqaUBKTNV-1" source="nufXrdWGqfoAn5ck-N7Z-1" target="nufXrdWGqfoAn5ck-N7Z-8">
          <mxGeometry relative="1" as="geometry">
            <mxPoint x="320" y="330" as="targetPoint" />
            <Array as="points">
              <mxPoint x="393" y="310" />
            </Array>
          </mxGeometry>
        </mxCell>
        <mxCell id="nufXrdWGqfoAn5ck-N7Z-16" value="NULL" style="edgeStyle=orthogonalEdgeStyle;rounded=0;orthogonalLoop=1;jettySize=auto;html=1;exitX=1;exitY=0.5;exitDx=0;exitDy=0;entryX=0;entryY=0.5;entryDx=0;entryDy=0;" edge="1" parent="WIyWlLk6GJQsqaUBKTNV-1" source="nufXrdWGqfoAn5ck-N7Z-1" target="nufXrdWGqfoAn5ck-N7Z-14">
          <mxGeometry relative="1" as="geometry" />
        </mxCell>
        <mxCell id="nufXrdWGqfoAn5ck-N7Z-1" value="LISTEN" style="shape=hexagon;perimeter=hexagonPerimeter2;whiteSpace=wrap;html=1;fixedSize=1;fillColor=#fff2cc;strokeColor=#d6b656;" vertex="1" parent="WIyWlLk6GJQsqaUBKTNV-1">
          <mxGeometry x="370" y="230" width="60" height="50" as="geometry" />
        </mxCell>
        <mxCell id="nufXrdWGqfoAn5ck-N7Z-12" style="edgeStyle=orthogonalEdgeStyle;rounded=0;orthogonalLoop=1;jettySize=auto;html=1;exitX=0.5;exitY=0;exitDx=0;exitDy=0;entryX=0;entryY=0.5;entryDx=0;entryDy=0;" edge="1" parent="WIyWlLk6GJQsqaUBKTNV-1" source="nufXrdWGqfoAn5ck-N7Z-8" target="WIyWlLk6GJQsqaUBKTNV-6">
          <mxGeometry relative="1" as="geometry" />
        </mxCell>
        <mxCell id="nufXrdWGqfoAn5ck-N7Z-8" value="ANS" style="rhombus;whiteSpace=wrap;html=1;shadow=0;fontFamily=Helvetica;fontSize=12;align=center;strokeWidth=1;spacing=6;spacingTop=-4;fillColor=#f8cecc;strokeColor=#b85450;" vertex="1" parent="WIyWlLk6GJQsqaUBKTNV-1">
          <mxGeometry x="240" y="280" width="70" height="60" as="geometry" />
        </mxCell>
        <mxCell id="nufXrdWGqfoAn5ck-N7Z-23" style="edgeStyle=orthogonalEdgeStyle;rounded=0;orthogonalLoop=1;jettySize=auto;html=1;exitX=0.5;exitY=1;exitDx=0;exitDy=0;entryX=0.5;entryY=0;entryDx=0;entryDy=0;" edge="1" parent="WIyWlLk6GJQsqaUBKTNV-1" source="nufXrdWGqfoAn5ck-N7Z-9" target="nufXrdWGqfoAn5ck-N7Z-21">
          <mxGeometry relative="1" as="geometry" />
        </mxCell>
        <mxCell id="nufXrdWGqfoAn5ck-N7Z-9" value="ANS" style="rhombus;whiteSpace=wrap;html=1;shadow=0;fontFamily=Helvetica;fontSize=12;align=center;strokeWidth=1;spacing=6;spacingTop=-4;fillColor=#f8cecc;strokeColor=#b85450;" vertex="1" parent="WIyWlLk6GJQsqaUBKTNV-1">
          <mxGeometry x="490" y="280" width="70" height="60" as="geometry" />
        </mxCell>
        <mxCell id="nufXrdWGqfoAn5ck-N7Z-20" style="edgeStyle=orthogonalEdgeStyle;rounded=0;orthogonalLoop=1;jettySize=auto;html=1;exitX=1;exitY=0.5;exitDx=0;exitDy=0;entryX=0;entryY=0.5;entryDx=0;entryDy=0;" edge="1" parent="WIyWlLk6GJQsqaUBKTNV-1" source="nufXrdWGqfoAn5ck-N7Z-14" target="nufXrdWGqfoAn5ck-N7Z-18">
          <mxGeometry relative="1" as="geometry" />
        </mxCell>
        <mxCell id="nufXrdWGqfoAn5ck-N7Z-14" value="ANS" style="rhombus;whiteSpace=wrap;html=1;shadow=0;fontFamily=Helvetica;fontSize=12;align=center;strokeWidth=1;spacing=6;spacingTop=-4;fillColor=#f8cecc;strokeColor=#b85450;" vertex="1" parent="WIyWlLk6GJQsqaUBKTNV-1">
          <mxGeometry x="550" y="225" width="70" height="60" as="geometry" />
        </mxCell>
        <mxCell id="nufXrdWGqfoAn5ck-N7Z-18" value="TOPICS" style="ellipse;whiteSpace=wrap;html=1;fillColor=#dae8fc;strokeColor=#6c8ebf;" vertex="1" parent="WIyWlLk6GJQsqaUBKTNV-1">
          <mxGeometry x="660" y="222.5" width="70" height="65" as="geometry" />
        </mxCell>
        <mxCell id="nufXrdWGqfoAn5ck-N7Z-29" style="edgeStyle=orthogonalEdgeStyle;rounded=0;orthogonalLoop=1;jettySize=auto;html=1;exitX=0;exitY=0.5;exitDx=0;exitDy=0;entryX=1;entryY=0.5;entryDx=0;entryDy=0;" edge="1" parent="WIyWlLk6GJQsqaUBKTNV-1" source="nufXrdWGqfoAn5ck-N7Z-21" target="nufXrdWGqfoAn5ck-N7Z-28">
          <mxGeometry relative="1" as="geometry" />
        </mxCell>
        <mxCell id="nufXrdWGqfoAn5ck-N7Z-21" value="QST" style="rounded=0;whiteSpace=wrap;html=1;fillColor=#d5e8d4;strokeColor=#82b366;" vertex="1" parent="WIyWlLk6GJQsqaUBKTNV-1">
          <mxGeometry x="497.5" y="370" width="55" height="50" as="geometry" />
        </mxCell>
        <mxCell id="nufXrdWGqfoAn5ck-N7Z-33" value="TRUE" style="edgeStyle=orthogonalEdgeStyle;rounded=0;orthogonalLoop=1;jettySize=auto;html=1;exitX=0.625;exitY=1;exitDx=0;exitDy=0;entryX=0;entryY=0.5;entryDx=0;entryDy=0;" edge="1" parent="WIyWlLk6GJQsqaUBKTNV-1" source="nufXrdWGqfoAn5ck-N7Z-28" target="nufXrdWGqfoAn5ck-N7Z-32">
          <mxGeometry relative="1" as="geometry">
            <Array as="points">
              <mxPoint x="408" y="450" />
              <mxPoint x="483" y="450" />
            </Array>
          </mxGeometry>
        </mxCell>
        <mxCell id="nufXrdWGqfoAn5ck-N7Z-35" value="FALSE" style="edgeStyle=orthogonalEdgeStyle;rounded=0;orthogonalLoop=1;jettySize=auto;html=1;exitX=0.375;exitY=1;exitDx=0;exitDy=0;entryX=1;entryY=0.5;entryDx=0;entryDy=0;" edge="1" parent="WIyWlLk6GJQsqaUBKTNV-1" source="nufXrdWGqfoAn5ck-N7Z-28" target="nufXrdWGqfoAn5ck-N7Z-34">
          <mxGeometry relative="1" as="geometry">
            <Array as="points">
              <mxPoint x="393" y="450" />
              <mxPoint x="310" y="450" />
            </Array>
          </mxGeometry>
        </mxCell>
        <mxCell id="nufXrdWGqfoAn5ck-N7Z-28" value="LISTEN" style="shape=hexagon;perimeter=hexagonPerimeter2;whiteSpace=wrap;html=1;fixedSize=1;fillColor=#fff2cc;strokeColor=#d6b656;" vertex="1" parent="WIyWlLk6GJQsqaUBKTNV-1">
          <mxGeometry x="370" y="370" width="60" height="50" as="geometry" />
        </mxCell>
        <mxCell id="nufXrdWGqfoAn5ck-N7Z-41" style="edgeStyle=orthogonalEdgeStyle;rounded=0;orthogonalLoop=1;jettySize=auto;html=1;exitX=1;exitY=0.5;exitDx=0;exitDy=0;entryX=0;entryY=0.5;entryDx=0;entryDy=0;" edge="1" parent="WIyWlLk6GJQsqaUBKTNV-1" source="nufXrdWGqfoAn5ck-N7Z-32" target="nufXrdWGqfoAn5ck-N7Z-40">
          <mxGeometry relative="1" as="geometry" />
        </mxCell>
        <mxCell id="nufXrdWGqfoAn5ck-N7Z-32" value="ANS" style="rhombus;whiteSpace=wrap;html=1;shadow=0;fontFamily=Helvetica;fontSize=12;align=center;strokeWidth=1;spacing=6;spacingTop=-4;fillColor=#f8cecc;strokeColor=#b85450;" vertex="1" parent="WIyWlLk6GJQsqaUBKTNV-1">
          <mxGeometry x="482.5" y="450" width="70" height="60" as="geometry" />
        </mxCell>
        <mxCell id="nufXrdWGqfoAn5ck-N7Z-38" style="edgeStyle=orthogonalEdgeStyle;rounded=0;orthogonalLoop=1;jettySize=auto;html=1;exitX=0.5;exitY=0;exitDx=0;exitDy=0;entryX=0.5;entryY=0;entryDx=0;entryDy=0;" edge="1" parent="WIyWlLk6GJQsqaUBKTNV-1" source="nufXrdWGqfoAn5ck-N7Z-34" target="nufXrdWGqfoAn5ck-N7Z-21">
          <mxGeometry relative="1" as="geometry" />
        </mxCell>
        <mxCell id="nufXrdWGqfoAn5ck-N7Z-34" value="ANS" style="rhombus;whiteSpace=wrap;html=1;shadow=0;fontFamily=Helvetica;fontSize=12;align=center;strokeWidth=1;spacing=6;spacingTop=-4;fillColor=#f8cecc;strokeColor=#b85450;" vertex="1" parent="WIyWlLk6GJQsqaUBKTNV-1">
          <mxGeometry x="240" y="450" width="70" height="60" as="geometry" />
        </mxCell>
        <mxCell id="nufXrdWGqfoAn5ck-N7Z-42" value="NO" style="edgeStyle=orthogonalEdgeStyle;rounded=0;orthogonalLoop=1;jettySize=auto;html=1;exitX=0.5;exitY=0;exitDx=0;exitDy=0;entryX=1;entryY=0.5;entryDx=0;entryDy=0;" edge="1" parent="WIyWlLk6GJQsqaUBKTNV-1" source="nufXrdWGqfoAn5ck-N7Z-40" target="nufXrdWGqfoAn5ck-N7Z-21">
          <mxGeometry relative="1" as="geometry" />
        </mxCell>
        <mxCell id="nufXrdWGqfoAn5ck-N7Z-46" value="YES" style="edgeStyle=orthogonalEdgeStyle;rounded=0;orthogonalLoop=1;jettySize=auto;html=1;exitX=0.5;exitY=1;exitDx=0;exitDy=0;entryX=0.5;entryY=0;entryDx=0;entryDy=0;" edge="1" parent="WIyWlLk6GJQsqaUBKTNV-1" source="nufXrdWGqfoAn5ck-N7Z-40" target="nufXrdWGqfoAn5ck-N7Z-45">
          <mxGeometry relative="1" as="geometry" />
        </mxCell>
        <mxCell id="nufXrdWGqfoAn5ck-N7Z-40" value="LAST&lt;br&gt;QST?" style="whiteSpace=wrap;html=1;aspect=fixed;fillColor=#e1d5e7;strokeColor=#9673a6;" vertex="1" parent="WIyWlLk6GJQsqaUBKTNV-1">
          <mxGeometry x="600" y="457.5" width="45" height="45" as="geometry" />
        </mxCell>
        <mxCell id="nufXrdWGqfoAn5ck-N7Z-45" value="END" style="rhombus;whiteSpace=wrap;html=1;shadow=0;fontFamily=Helvetica;fontSize=12;align=center;strokeWidth=1;spacing=6;spacingTop=-4;fillColor=#f8cecc;strokeColor=#b85450;" vertex="1" parent="WIyWlLk6GJQsqaUBKTNV-1">
          <mxGeometry x="587.5" y="555" width="70" height="60" as="geometry" />
        </mxCell>
      </root>
    </mxGraphModel>
  </diagram>
</mxfile>
